HIERARCHY
ROOT hip
{
	OFFSET 0.000000 0.000000 0.000000
	CHANNELS 6 Xposition Yposition Zposition Zrotation Yrotation Xrotation 
	JOINT lhipjoint
	{
		OFFSET 0.000000 0.000000 0.000000
		CHANNELS 3 Zrotation Yrotation Xrotation
		JOINT lfemur
		{
			OFFSET 1.363060 -1.794630 0.839290
			CHANNELS 3 Zrotation Yrotation Xrotation
			JOINT ltibia
			{
				OFFSET 2.448110 -6.726130 0.000000
				CHANNELS 3 Zrotation Yrotation Xrotation
				JOINT lfoot
				{
					OFFSET 2.562200 -7.039590 0.000000
					CHANNELS 3 Zrotation Yrotation Xrotation
					JOINT ltoes
					{
						OFFSET 0.157640 -0.433110 2.322550
						CHANNELS 3 Zrotation Yrotation Xrotation
						End Site
						{
							OFFSET 0.000000 0.000000 0.000000
						}
					}
				}
			}
		}
	}
	JOINT rhipjoint
	{
		OFFSET 0.000000 0.000000 0.000000
		CHANNELS 3 Zrotation Yrotation Xrotation
		JOINT rfemur
		{
			OFFSET -1.305520 -1.794630 0.839290
			CHANNELS 3 Zrotation Yrotation Xrotation
			JOINT rtibia
			{
				OFFSET -2.542530 -6.985550 0.000000
				CHANNELS 3 Zrotation Yrotation Xrotation
				JOINT rfoot
				{
					OFFSET -2.568260 -7.056230 0.000000
					CHANNELS 3 Zrotation Yrotation Xrotation
					JOINT rtoes
					{
						OFFSET -0.164730 -0.452590 2.363150
						CHANNELS 3 Zrotation Yrotation Xrotation
						End Site
						{
							OFFSET 0.000000 0.000000 0.000000
						}
					}
				}
			}
		}
	}
	JOINT lowerback
	{
		OFFSET 0.000000 0.000000 0.000000
		CHANNELS 3 Zrotation Yrotation Xrotation
		JOINT upperback
		{
			OFFSET 0.028270 2.035590 -0.193380
			CHANNELS 3 Zrotation Yrotation Xrotation
			JOINT thorax
			{
				OFFSET 0.056720 2.048850 -0.042750
				CHANNELS 3 Zrotation Yrotation Xrotation
				JOINT lowerneck
				{
					OFFSET 0.000000 0.000000 0.000000
					CHANNELS 3 Zrotation Yrotation Xrotation
					JOINT upperneck
					{
						OFFSET -0.054170 1.746240 0.172020
						CHANNELS 3 Zrotation Yrotation Xrotation
						JOINT head
						{
							OFFSET 0.104070 1.761360 -0.123970
							CHANNELS 3 Zrotation Yrotation Xrotation
							End Site
							{
								OFFSET 0.000000 0.000000 0.000000
							}
						}
					}
				}
				JOINT lclavicle
				{
					OFFSET 0.000000 0.000000 0.000000
					CHANNELS 3 Zrotation Yrotation Xrotation
					JOINT lhumerus
					{
						OFFSET 3.362410 1.200890 -0.311210
						CHANNELS 3 Zrotation Yrotation Xrotation
						JOINT lradius
						{
							OFFSET 4.983000 -0.000000 -0.000000
							CHANNELS 3 Zrotation Yrotation Xrotation
							JOINT lwrist
							{
								OFFSET 3.483560 -0.000000 -0.000000
								CHANNELS 3 Zrotation Yrotation Xrotation
								JOINT lhand
								{
									OFFSET 0.000000 0.000000 0.000000
									CHANNELS 3 Zrotation Yrotation Xrotation
									JOINT lfingers
									{
										OFFSET 0.715260 -0.000000 -0.000000
										CHANNELS 3 Zrotation Yrotation Xrotation
										End Site
										{
											OFFSET 0.000000 0.000000 0.000000
										}
									}
								}
								JOINT lthumb
								{
									OFFSET 0.000000 0.000000 0.000000
									CHANNELS 3 Zrotation Yrotation Xrotation
									End Site
									{
										OFFSET 0.000000 0.000000 0.000000
									}
								}
							}
						}
					}
				}
				JOINT rclavicle
				{
					OFFSET 0.000000 0.000000 0.000000
					CHANNELS 3 Zrotation Yrotation Xrotation
					JOINT rhumerus
					{
						OFFSET -3.136600 1.374050 -0.404650
						CHANNELS 3 Zrotation Yrotation Xrotation
						JOINT rradius
						{
							OFFSET -5.241900 -0.000000 -0.000000
							CHANNELS 3 Zrotation Yrotation Xrotation
							JOINT rwrist
							{
								OFFSET -3.444170 -0.000000 -0.000000
								CHANNELS 3 Zrotation Yrotation Xrotation
								JOINT rhand
								{
									OFFSET 0.000000 0.000000 0.000000
									CHANNELS 3 Zrotation Yrotation Xrotation
									JOINT rfingers
									{
										OFFSET -0.622530 -0.000000 -0.000000
										CHANNELS 3 Zrotation Yrotation Xrotation
										End Site
										{
											OFFSET 0.000000 0.000000 0.000000
										}
									}
								}
								JOINT rthumb
								{
									OFFSET 0.000000 0.000000 0.000000
									CHANNELS 3 Zrotation Yrotation Xrotation
									End Site
									{
										OFFSET 0.000000 0.000000 0.000000
									}
								}
							}
						}
					}
				}
			}
		}
	}
}
MOTION
Frames: 10
Frame Time: 0.008333
-3.236790 16.357394 -0.085415 -173.955932 -43.230083 -48.857582 3.641434 2.316830 2.135776 33.541969 9.489824 -40.508902 17.842274 21.563547 82.850293 -0.811066 7.185275 -13.575208 0.857800 5.906300 16.512700 -3.639701 -0.041483 -3.555092 -1.297704 -17.717079 31.386060 -6.990573 -14.445832 47.273626 -0.123297 -0.377842 5.631572 -0.085500 1.886000 -5.190700 -7.659259 2.008693 18.232570 -0.830345 0.803449 -4.061229 -5.839643 0.811230 -4.001114 -4.336960 -4.449009 -30.768713 10.013965 -5.732514 -4.051745 1.869200 -3.158500 2.632000 -2.461460 -9.931115 0.980830 55.962841 -18.003592 -32.373970 28.466183 -43.915613 -8.400598 0.599192 -0.414549 -64.864334 29.503825 -9.154165 -4.704400 -7.125000 0.000000 0.000000 1.983000 20.433200 -1.166600 4.992558 11.545693 2.781590 -30.086977 40.228756 -28.855320 -18.910615 38.016307 -5.834499 0.492301 -1.170049 -86.000372 -70.683858 -22.924081 45.768000 7.125000 0.000000 0.000000 -70.615700 -66.524500 45.091300 
-3.142862 16.347237 -0.222583 -175.603030 -44.035010 -47.568358 3.591782 2.309365 2.123263 33.356684 9.436708 -39.454024 17.927901 21.522718 83.101633 -0.744203 7.039306 -13.963724 0.801300 5.713200 15.954400 -3.661980 -0.063924 -3.566522 -1.116976 -16.855115 31.135763 -6.646083 -14.106772 45.889086 -0.165096 0.255290 5.195493 -0.097100 2.010000 -5.533300 -6.853975 1.787929 17.998343 -0.752269 0.714377 -4.072953 -5.802075 0.743325 -3.969630 -4.211939 -4.421926 -30.767135 9.943833 -5.725765 -3.946802 1.801200 -3.158600 2.654600 -2.391150 -9.962162 0.927017 56.181190 -17.680644 -31.261722 28.513205 -43.881778 -8.386783 0.622979 -0.422426 -65.577125 29.698894 -9.144475 -4.721000 -7.125000 0.000000 0.000000 2.130600 20.459100 -1.252300 5.024737 11.566647 2.727241 -29.769534 40.238590 -27.559518 -19.236209 38.319815 -5.966544 0.523736 -1.164379 -86.984747 -70.953846 -23.167192 46.445700 7.125000 0.000000 0.000000 -72.079700 -66.731000 46.676600 
-3.055319 16.349849 -0.353947 -177.259534 -44.851312 -46.289988 3.538992 2.300456 2.107146 33.162098 9.388443 -38.399882 18.007866 21.480768 83.333570 -0.622876 6.686282 -14.225027 0.794000 5.687900 15.881600 -3.682326 -0.082277 -3.578436 -1.083320 -16.066939 30.812309 -6.334399 -13.790298 44.613108 -0.203709 0.851969 4.796863 -0.062000 1.607100 -4.421100 -6.035665 1.580318 17.828594 -0.671588 0.635038 -4.080352 -5.755315 0.680606 -3.934251 -4.053191 -4.362408 -30.806193 9.836621 -5.683706 -3.866365 1.710200 -3.150200 2.672500 -2.313766 -9.986572 0.864778 56.414091 -17.331020 -30.170813 28.546387 -43.830917 -8.365447 0.647163 -0.430609 -66.321302 29.863514 -9.138457 -4.733700 -7.125000 0.000000 0.000000 2.256800 20.483900 -1.325400 5.064595 11.579823 2.694706 -29.556003 40.255626 -26.468498 -19.544055 38.620428 -6.092114 0.554994 -1.162083 -87.937425 -71.252023 -23.448608 47.212300 7.125000 0.000000 0.000000 -73.759500 -66.957700 48.511600 
-2.972225 16.363778 -0.482022 -178.934751 -45.663488 -45.004730 3.483462 2.290384 2.088468 32.946391 9.338468 -37.353452 18.071434 21.435287 83.513768 -0.479007 6.211054 -14.269636 0.799800 5.708100 15.939700 -3.704258 -0.098922 -3.589118 -1.195734 -15.397627 30.360084 -6.064033 -13.509348 43.489616 -0.237601 1.420615 4.314561 -0.053700 1.495900 -4.114300 -5.233548 1.399169 17.738104 -0.586856 0.579455 -4.087174 -5.659385 0.629255 -3.920872 -3.894580 -4.301211 -30.869516 9.717359 -5.635486 -3.802078 1.606600 -3.144000 2.693800 -2.225705 -10.009896 0.790729 56.660648 -16.954597 -29.060925 28.576932 -43.769560 -8.340236 0.673293 -0.438781 -67.102610 30.091417 -9.094006 -4.734900 -7.125000 0.000000 0.000000 2.432000 20.549900 -1.424800 5.113406 11.587426 2.696313 -29.560779 40.209808 -25.514204 -19.789622 38.865545 -6.174569 0.582855 -1.161243 -88.958039 -71.536742 -23.699595 47.937700 7.125000 0.000000 0.000000 -75.372800 -67.156000 50.276400 
-2.891840 16.382932 -0.609903 179.350416 -46.481759 -43.707409 3.426611 2.279404 2.064965 32.727572 9.286334 -36.282167 18.111672 21.385325 83.624244 -0.339343 5.721643 -14.192263 0.811800 5.749800 16.060300 -3.730427 -0.113371 -3.602741 -1.399628 -14.830854 29.791451 -5.842477 -13.270079 42.542410 -0.250300 1.778012 3.547045 -0.070800 1.716300 -4.722200 -4.432204 1.226548 17.726127 -0.496552 0.530073 -4.086718 -5.515204 0.580607 -3.880592 -3.725362 -4.232663 -31.048448 9.573548 -5.572723 -3.732469 1.482400 -3.135300 2.743300 -2.127195 -10.017460 0.692955 56.950164 -16.508568 -27.943163 28.589046 -43.673977 -8.297872 0.701591 -0.446949 -67.975784 30.360570 -9.086772 -4.763400 -7.125000 0.000000 0.000000 2.635100 20.572400 -1.542700 5.169899 11.579947 2.737636 -29.793200 40.136053 -24.824624 -20.017782 39.113165 -6.242905 0.609581 -1.162870 -90.021703 -71.795970 -23.938788 48.616500 7.125000 0.000000 0.000000 -76.902800 -67.338300 51.967400 
-2.813679 16.405180 -0.738074 177.562949 -47.307854 -42.368278 3.366345 2.267082 2.037543 32.519099 9.225675 -35.166448 18.124891 21.329900 83.653957 -0.184994 5.154899 -14.001332 0.859900 5.913400 16.533200 -3.765774 -0.132761 -3.613828 -1.646161 -14.355124 29.058453 -5.669137 -13.073740 41.770718 -0.240820 1.824620 2.757750 -0.081400 1.839800 -5.063200 -3.624382 1.086163 17.802352 -0.396743 0.522478 -4.084618 -5.272693 0.551292 -3.862900 -3.622060 -4.197228 -31.311376 9.394796 -5.520817 -3.636678 1.364400 -3.132200 2.800300 -2.013523 -10.026898 0.591347 57.203550 -16.064319 -26.856764 28.581418 -43.550570 -8.244081 0.730075 -0.457372 -68.854448 30.653115 -9.016080 -4.758500 -7.125000 0.000000 0.000000 2.862600 20.667700 -1.670100 5.228766 11.577123 2.778924 -30.143577 39.962634 -24.119784 -20.224225 39.320162 -6.286908 0.634251 -1.163663 -91.156714 -72.057035 -24.141126 49.267400 7.125000 0.000000 0.000000 -78.386900 -67.487300 53.593100 
-2.737260 16.433136 -0.866343 175.731639 -48.102759 -40.988564 3.307088 2.253408 2.007963 32.282216 9.159339 -34.078419 18.116814 21.270192 83.621337 -0.031437 4.567665 -13.715224 0.949700 6.206100 17.383700 -3.801836 -0.156386 -3.619043 -1.948298 -13.948614 28.187950 -5.529243 -12.908608 41.120585 -0.205382 1.514357 2.015425 -0.030800 1.132500 -3.113400 -2.818980 0.959807 17.962826 -0.298095 0.526701 -4.085039 -5.039545 0.527472 -3.905766 -3.532609 -4.168332 -31.519125 9.226740 -5.474604 -3.592270 1.237300 -3.133800 2.871900 -1.905398 -10.048415 0.497352 57.483397 -15.675228 -25.871156 28.526412 -43.400249 -8.166824 0.758370 -0.468111 -69.645033 30.855752 -8.972070 -4.751800 -7.125000 0.000000 0.000000 3.023500 20.739800 -1.759300 5.290125 11.582868 2.821703 -30.517859 39.756863 -23.498450 -20.393131 39.488018 -6.314696 0.656386 -1.162457 -92.252816 -72.298320 -24.319761 49.866700 7.125000 0.000000 0.000000 -79.766500 -67.610100 55.102900 
-2.661228 16.464284 -0.995095 173.884218 -48.884131 -39.628867 3.246881 2.238136 1.973749 32.023742 9.091075 -32.939912 18.082976 21.202914 83.514213 0.124522 3.976816 -13.461906 1.043500 6.496500 18.232100 -3.835805 -0.180456 -3.619736 -2.344999 -13.626270 27.212679 -5.415033 -12.775898 40.585425 -0.160814 1.067901 1.419535 -0.000600 0.155500 -0.427300 -2.040471 0.862630 18.225523 -0.198911 0.562677 -4.084033 -4.771015 0.518331 -3.996537 -3.482753 -4.148223 -31.688144 9.071558 -5.429440 -3.599381 1.122400 -3.139200 2.925000 -1.794241 -10.083061 0.405149 57.757749 -15.273406 -24.873447 28.483106 -43.253757 -8.092585 0.788662 -0.478841 -70.493050 31.148600 -8.980154 -4.790900 -7.125000 0.000000 0.000000 3.246000 20.747000 -1.888600 5.354743 11.595788 2.866339 -30.920607 39.504108 -22.933763 -20.533469 39.620779 -6.327760 0.675462 -1.158488 -93.297297 -72.436856 -24.484891 50.293700 7.125000 0.000000 0.000000 -80.763800 -67.727100 56.242900 
-2.585292 16.484792 -1.127135 171.991715 -49.617283 -38.219926 3.191062 2.222577 1.938010 31.733401 8.939273 -31.868757 18.030471 21.130942 83.354609 0.260790 3.469860 -13.297421 1.117800 6.716300 18.877400 -3.871202 -0.208440 -3.615928 -2.762618 -13.404024 26.113222 -5.322547 -12.669679 40.145231 -0.101969 0.452753 0.936119 -0.014200 -0.770000 2.116200 -1.290499 0.763050 18.540036 -0.100823 0.591947 -4.083610 -4.492570 0.503996 -4.120372 -3.432786 -4.120758 -31.839369 8.897168 -5.373108 -3.619745 0.999900 -3.142300 2.972800 -1.682472 -10.124747 0.305855 58.032941 -14.803376 -23.822107 28.481258 -43.133620 -8.041335 0.820594 -0.489863 -71.382782 31.461965 -8.982631 -4.829200 -7.125000 0.000000 0.000000 3.484800 20.760900 -2.027000 5.421334 11.612186 2.917457 -31.346154 39.257291 -22.467944 -20.665512 39.750268 -6.338885 0.693686 -1.157432 -94.320041 -72.632904 -24.587755 50.741700 7.125000 0.000000 0.000000 -81.806200 -67.791200 57.367300 
-2.508970 16.498044 -1.258983 170.116975 -50.278778 -36.849220 3.138450 2.206734 1.898238 31.348968 8.753950 -30.795723 17.956403 21.048982 83.134784 0.348415 3.113677 -13.066584 1.091500 6.639500 18.651800 -3.898701 -0.233932 -3.608708 -3.256111 -13.203527 24.924131 -5.258534 -12.597622 39.826866 -0.018023 -0.425651 0.215307 -0.049400 -1.433900 3.943500 -0.601477 0.676662 18.930709 -0.008175 0.629310 -4.081867 -4.221381 0.493405 -4.279425 -3.383884 -4.111796 -31.972843 8.733404 -5.339572 -3.638678 0.876900 -3.155800 3.024600 -1.578432 -10.173334 0.209281 58.355867 -14.366233 -22.803947 28.452897 -42.996046 -7.972240 0.853861 -0.499364 -72.259364 31.766078 -9.062235 -4.912200 -7.125000 0.000000 0.000000 3.709300 20.686800 -2.164300 5.488656 11.637315 2.964809 -31.782761 38.960703 -21.989103 -20.768414 39.843383 -6.333748 0.708371 -1.152376 -95.313028 -72.741714 -24.680047 51.048000 7.125000 0.000000 0.000000 -82.528900 -67.857900 58.182300 
